<svg width="50" height="50" viewBox="0 0 50 50" fill="none" xmlns="http://www.w3.org/2000/svg">
<path d="M25 46.9727C37.1352 46.9727 46.9727 37.1352 46.9727 25C46.9727 12.8648 37.1352 3.02734 25 3.02734C12.8648 3.02734 3.02734 12.8648 3.02734 25C3.02734 37.1352 12.8648 46.9727 25 46.9727Z" fill="url(#paint0_linear_403_0)"/>
<path d="M29.668 12.793H20.3418C16.1816 12.793 12.8027 16.1719 12.8027 20.332V29.6582C12.8027 33.8184 16.1816 37.1973 20.3418 37.1973H29.668C33.8281 37.1973 37.207 33.8184 37.207 29.6582V20.332C37.207 16.1719 33.8281 12.793 29.668 12.793ZM34.4824 29.668C34.4824 32.3242 32.3242 34.4922 29.6582 34.4922H20.332C17.6758 34.4922 15.5078 32.334 15.5078 29.668V20.3418C15.5078 17.6855 17.666 15.5176 20.332 15.5176H29.6582C32.3145 15.5176 34.4824 17.6758 34.4824 20.3418V29.668Z" fill="white"/>
<path d="M25 18.7598C21.5625 18.7598 18.7598 21.5625 18.7598 25C18.7598 28.4375 21.5625 31.2402 25 31.2402C28.4375 31.2402 31.2402 28.4375 31.2402 25C31.2402 21.5625 28.4375 18.7598 25 18.7598V18.7598ZM25 28.7891C22.9102 28.7891 21.2109 27.0898 21.2109 25C21.2109 22.9102 22.9102 21.2109 25 21.2109C27.0898 21.2109 28.7891 22.9102 28.7891 25C28.7891 27.0898 27.0898 28.7891 25 28.7891Z" fill="white"/>
<path d="M31.7155 19.4439C32.2904 19.3507 32.6809 18.8091 32.5877 18.2341C32.4945 17.6592 31.9529 17.2687 31.378 17.3619C30.8031 17.4551 30.4126 17.9967 30.5058 18.5716C30.599 19.1466 31.1406 19.5371 31.7155 19.4439Z" fill="white"/>
<defs>
<linearGradient id="paint0_linear_403_0" x1="8.26943" y1="41.7306" x2="39.495" y2="10.505" gradientUnits="userSpaceOnUse">
<stop stop-color="#FEE411"/>
<stop offset="0.0518459" stop-color="#FEDB16"/>
<stop offset="0.1381" stop-color="#FEC125"/>
<stop offset="0.2481" stop-color="#FE983D"/>
<stop offset="0.3762" stop-color="#FE5F5E"/>
<stop offset="0.5" stop-color="#FE2181"/>
<stop offset="1" stop-color="#9000DC"/>
</linearGradient>
</defs>
</svg>
