<svg width="50" height="50" viewBox="0 0 50 50" fill="none" xmlns="http://www.w3.org/2000/svg">
<path d="M25 46.9727C37.1352 46.9727 46.9727 37.1352 46.9727 25C46.9727 12.8648 37.1352 3.02734 25 3.02734C12.8648 3.02734 3.02734 12.8648 3.02734 25C3.02734 37.1352 12.8648 46.9727 25 46.9727Z" fill="#3B5999"/>
<path d="M31.3086 16.8066V12.832C31.3086 12.832 27.2461 12.793 26.9727 12.793C25.1367 12.793 22.5 14.8828 22.5 17.2559V21.5137H18.6914V26.0254H22.4414V37.207H26.8848V25.9668H30.8105L31.3086 21.5625H26.9336C26.9336 21.5625 26.9336 18.8574 26.9336 18.3301C26.9336 17.5488 27.5195 16.7969 28.3984 16.7969C28.9844 16.7773 31.3086 16.8066 31.3086 16.8066V16.8066Z" fill="white"/>
</svg>
