<svg width="50" height="50" viewBox="0 0 50 50" fill="none" xmlns="http://www.w3.org/2000/svg">
<path d="M25 46.9727C37.1352 46.9727 46.9727 37.1352 46.9727 25C46.9727 12.8648 37.1352 3.02734 25 3.02734C12.8648 3.02734 3.02734 12.8648 3.02734 25C3.02734 37.1352 12.8648 46.9727 25 46.9727Z" fill="#55ACEE"/>
<path d="M33.1934 16.6992C33.1934 16.6992 31.9043 15.1367 29.6582 15.2148C26.9922 15.3027 24.5215 16.9336 24.8047 21.1035C24.8047 21.1035 20.791 22.3242 14.5508 16.3867C14.5508 16.3867 12.5391 19.6582 16.0937 22.7441C16.0937 22.7441 15.0977 23.0176 13.7695 22.2754C13.7695 22.2754 13.0566 25.0391 17.627 27.1387C17.627 27.1387 16.084 27.5781 15.3906 27.1387C15.3906 27.1387 15.8008 30.0781 19.9023 30.7715C19.9023 30.7715 17.793 32.8711 12.8027 32.8125C12.8027 32.8125 23.1836 38.125 30.3809 31.2988C35.5176 26.4258 34.8047 19.9219 34.8047 19.9219C34.8047 19.9219 36.3184 19.4531 37.2168 17.8125C37.2168 17.8125 35.498 18.3496 34.5117 18.2617C34.5117 18.2617 36.4063 17.0801 36.5527 15.6836C36.5332 15.6934 34.9219 16.8457 33.1934 16.6992V16.6992Z" fill="white"/>
</svg>
