<svg width="50" height="50" viewBox="0 0 50 50" fill="none" xmlns="http://www.w3.org/2000/svg">
<path d="M25 46.9727C37.1352 46.9727 46.9727 37.1352 46.9727 25C46.9727 12.8648 37.1352 3.02734 25 3.02734C12.8648 3.02734 3.02734 12.8648 3.02734 25C3.02734 37.1352 12.8648 46.9727 25 46.9727Z" fill="#E53935"/>
<path d="M32.7734 16.4941H17.2266C14.7852 16.4941 12.793 18.4863 12.793 20.9277V29.0625C12.793 31.5039 14.7852 33.4961 17.2266 33.4961H32.7734C35.2148 33.4961 37.207 31.5039 37.207 29.0625V20.9277C37.207 18.4961 35.2148 16.4941 32.7734 16.4941ZM25.6836 27.4023L21.8945 29.7461V25.0586V20.3711L25.6836 22.7148L29.4727 25.0586L25.6836 27.4023Z" fill="white"/>
</svg>
